<svg xmlns="http://www.w3.org/2000/svg" viewBox="0 0 520 400" font-family="system-ui, -apple-system, sans-serif">
  <!-- Context window outline -->
  <rect x="60" y="20" width="400" height="360" rx="8" fill="none" stroke="#555" stroke-width="2" stroke-dasharray="8 4"/>
  <text x="70" y="15" font-size="13" fill="#777">context window</text>

  <!-- Message blocks stacking down -->
  <!-- User 1 -->
  <rect x="80" y="40" width="280" height="44" rx="6" fill="#3b82f6" opacity="0.85"/>
  <text x="96" y="58" font-size="12" fill="#fff" font-weight="600">you</text>
  <text x="96" y="74" font-size="11" fill="#dbeafe">what's the difference between...</text>

  <!-- Assistant 1 -->
  <rect x="160" y="96" width="280" height="44" rx="6" fill="#6b7280" opacity="0.8"/>
  <text x="176" y="114" font-size="12" fill="#fff" font-weight="600">assistant</text>
  <text x="176" y="130" font-size="11" fill="#e5e7eb">open-strix is biased toward writing...</text>

  <!-- User 2 -->
  <rect x="80" y="152" width="280" height="44" rx="6" fill="#3b82f6" opacity="0.85"/>
  <text x="96" y="170" font-size="12" fill="#fff" font-weight="600">you</text>
  <text x="96" y="186" font-size="11" fill="#dbeafe">what about the cold paths blog?</text>

  <!-- Assistant 2 -->
  <rect x="160" y="208" width="280" height="44" rx="6" fill="#6b7280" opacity="0.8"/>
  <text x="176" y="226" font-size="12" fill="#fff" font-weight="600">assistant</text>
  <text x="176" y="242" font-size="11" fill="#e5e7eb">Gil Tene hardened Azul's GC in 4yr...</text>

  <!-- User 3 -->
  <rect x="80" y="264" width="280" height="44" rx="6" fill="#3b82f6" opacity="0.85"/>
  <text x="96" y="282" font-size="12" fill="#fff" font-weight="600">you</text>
  <text x="96" y="298" font-size="11" fill="#dbeafe">give me the url</text>

  <!-- Assistant 3 -->
  <rect x="160" y="320" width="280" height="44" rx="6" fill="#6b7280" opacity="0.8"/>
  <text x="176" y="338" font-size="12" fill="#fff" font-weight="600">assistant</text>
  <text x="176" y="354" font-size="11" fill="#e5e7eb">/engineering/2021/01/29/cold-paths</text>

  <!-- Append arrows on the left side -->
  <path d="M50 62 L50 118 L50 174 L50 230 L50 286 L50 342" stroke="#3b82f6" stroke-width="2" fill="none" marker-end="url(#arrowBlue)"/>
  <circle cx="50" cy="62" r="3" fill="#3b82f6"/>
  <circle cx="50" cy="118" r="3" fill="#6b7280"/>
  <circle cx="50" cy="174" r="3" fill="#3b82f6"/>
  <circle cx="50" cy="230" r="3" fill="#6b7280"/>
  <circle cx="50" cy="286" r="3" fill="#3b82f6"/>

  <!-- Arrow marker -->
  <defs>
    <marker id="arrowBlue" markerWidth="8" markerHeight="6" refX="8" refY="3" orient="auto">
      <path d="M0,0 L8,3 L0,6" fill="#3b82f6"/>
    </marker>
  </defs>
</svg>
