<?xml version="1.0" encoding="UTF-8" standalone="no"?>
<!-- Created with Inkscape (http://www.inkscape.org/) -->

<svg
   xmlns:dc="http://purl.org/dc/elements/1.1/"
   xmlns:cc="http://creativecommons.org/ns#"
   xmlns:rdf="http://www.w3.org/1999/02/22-rdf-syntax-ns#"
   xmlns:svg="http://www.w3.org/2000/svg"
   xmlns="http://www.w3.org/2000/svg"
   xmlns:sodipodi="http://sodipodi.sourceforge.net/DTD/sodipodi-0.dtd"
   xmlns:inkscape="http://www.inkscape.org/namespaces/inkscape"
   width="400"
   height="400"
   id="svg2"
   version="1.1"
   inkscape:version="0.48.2 r9819"
   sodipodi:docname="New document 1">
  <defs
     id="defs4" />
  <sodipodi:namedview
     id="base"
     pagecolor="#ffffff"
     bordercolor="#666666"
     borderopacity="1.0"
     inkscape:pageopacity="0.0"
     inkscape:pageshadow="2"
     inkscape:zoom="1.4"
     inkscape:cx="225.96007"
     inkscape:cy="189.91111"
     inkscape:document-units="px"
     inkscape:current-layer="layer1"
     showgrid="false"
     width="400px"
     inkscape:window-width="1920"
     inkscape:window-height="1056"
     inkscape:window-x="0"
     inkscape:window-y="24"
     inkscape:window-maximized="1" />
  <metadata
     id="metadata7">
    <rdf:RDF>
      <cc:Work
         rdf:about="">
        <dc:format>image/svg+xml</dc:format>
        <dc:type
           rdf:resource="http://purl.org/dc/dcmitype/StillImage" />
        <dc:title></dc:title>
      </cc:Work>
    </rdf:RDF>
  </metadata>
  <g
     inkscape:label="Layer 1"
     inkscape:groupmode="layer"
     id="layer1"
     transform="translate(0,-652.36275)">
    <path
       style="fill:#000000;fill-opacity:1;fill-rule:nonzero;stroke:none"
       id="path3005"
       d="m 47.716831,735.28298 c 1.836629,0.18097 3.697519,-0.10613 5.533007,-0.24104 2.669098,-0.22007 5.343224,-0.35216 8.017811,-0.48258 5.034837,-0.2475 10.050445,-0.78293 15.066577,-1.26729 6.64841,-0.69951 13.284852,-1.50147 19.938217,-2.15467 9.894757,-0.97432 19.762917,-2.21 29.624797,-3.47036 12.11274,-1.66705 24.2607,-3.05594 36.37397,-4.71719 13.56651,-1.89718 27.09192,-4.07233 40.60087,-6.33925 11.73237,-2.00032 23.42376,-4.22859 35.1051,-6.50502 10.52748,-2.08023 20.98098,-4.5076 31.41169,-7.02232 10.0301,-2.42987 19.99698,-5.10736 29.93582,-7.88403 9.3526,-2.56566 18.58786,-5.52173 27.77827,-8.61119 8.21466,-2.76425 16.34595,-5.76871 24.4033,-8.96076 6.9879,-2.77388 13.8717,-5.79338 20.72284,-8.88647 5.81143,-2.58952 11.50998,-5.4178 17.19976,-8.26124 3.26143,-1.649 6.49928,-3.3434 9.7202,-5.06992 0,0 -42.55967,34.17469 -42.55967,34.17469 l 0,0 c -3.19537,1.63333 -6.39493,3.25892 -9.62642,4.82001 -5.62382,2.72445 -11.29336,5.35336 -17.0259,7.84199 -6.79548,2.94765 -13.63405,5.79667 -20.56055,8.42441 -8.01151,3.00227 -16.07592,5.86186 -24.22124,8.48235 -9.17474,2.95968 -18.40285,5.74673 -27.71839,8.23319 -9.94581,2.69698 -19.91817,5.29554 -29.94925,7.65903 -10.41729,2.43757 -20.86926,4.7315 -31.38597,6.70283 -11.53307,2.13516 -23.08559,4.16948 -34.67107,6.00133 -13.42454,2.09955 -26.86517,4.08984 -40.31742,6.00396 -12.41881,1.83882 -24.830867,3.73162 -37.285131,5.31925 -10.16685,1.34922 -20.328272,2.73858 -30.499875,4.05167 -6.852493,0.95441 -13.713016,1.84049 -20.596208,2.54678 -5.277341,0.59384 -10.562426,1.10617 -15.843566,1.66337 -2.767328,0.28922 -5.539431,0.53141 -8.3041212,0.84491 -1.86075,0.23561 -3.846029,0.32878 -5.571696,1.10101 0,0 44.7042482,-33.99745 44.7042482,-33.99745 z"
       inkscape:connector-curvature="0" />
    <path
       style="fill:#000000;fill-opacity:1;fill-rule:nonzero;stroke:none"
       id="path3011"
       d="m 190.10588,723.00344 c -0.27248,1.37297 -0.33817,2.77628 -0.41646,4.17058 -0.13248,2.6116 -0.23714,5.22448 -0.31214,7.83835 -0.0775,3.67079 -0.18958,7.34044 -0.35202,11.00843 -0.18424,4.17094 -0.36535,8.3417 -0.62588,12.50868 -0.27944,4.18561 -0.71338,8.35869 -1.23644,12.52024 -0.55864,4.22428 -1.32322,8.41799 -2.16418,12.59411 -0.90436,4.30236 -1.99143,8.5639 -3.10789,12.81529 -1.12648,4.20792 -2.34028,8.39202 -3.57421,12.5695 -1.24636,4.21893 -2.56446,8.41579 -3.92104,12.6004 -1.48643,4.54468 -3.06159,9.05946 -4.71036,13.5476 -1.8243,5.05516 -3.8248,10.04261 -5.85086,15.01935 -2.32924,5.75348 -4.82917,11.4352 -7.37124,17.09711 -2.87513,6.38216 -6.12652,12.58357 -9.40334,18.76575 -3.63549,6.89274 -7.39998,13.71356 -11.46663,20.3615 -4.58816,7.21268 -9.49467,14.21672 -14.3474,21.25238 -4.74928,6.87866 -9.60734,13.68115 -14.41754,20.51714 -4.26039,6.04043 -8.488947,12.10339 -12.657547,18.20755 0,0 -49.421528,21.55391 -49.421528,21.55391 l 0,0 c 4.247461,-6.20176 8.565364,-12.35423 12.963218,-18.4505 4.900792,-6.8073 9.75486,-13.64841 14.572018,-20.51513 4.847898,-6.9408 9.665261,-13.90517 14.342169,-20.96253 4.093899,-6.4396 7.778073,-13.11006 11.310793,-19.87291 3.199147,-6.07171 6.411907,-12.14021 9.319307,-18.35901 2.51265,-5.53726 4.90055,-11.12882 7.16036,-16.77434 1.98137,-4.87987 3.93658,-9.77233 5.70869,-14.73289 1.59767,-4.41934 3.22024,-8.83074 4.64971,-13.30858 1.35237,-4.13823 2.66305,-8.28915 3.93011,-12.45426 1.2476,-4.14244 2.47415,-8.29061 3.65109,-12.45391 1.15955,-4.14174 2.23605,-8.30633 3.18874,-12.50097 0.8855,-4.05047 1.71313,-8.11617 2.32186,-12.21876 0.57591,-4.06015 1.08775,-8.1292 1.38247,-12.22093 0.33886,-4.10096 0.55932,-8.21043 0.66937,-12.32408 0.11828,-3.57395 0.17969,-7.14792 0.12485,-10.72401 -0.016,-2.57075 -0.0604,-5.14119 -0.0801,-7.71191 -0.015,-1.41903 -0.0408,-2.83789 -0.12372,-4.25486 0,0 50.2658,-25.10829 50.2658,-25.10829 z"
       inkscape:connector-curvature="0" />
    <path
       style="fill:#000000;fill-opacity:1;fill-rule:nonzero;stroke:none"
       id="path3013"
       d="m 336.96014,695.47525 c -0.45329,0.85629 -1.00518,1.65468 -1.5225,2.4756 -1.01889,1.66602 -2.07043,3.31853 -3.1742,4.93089 -1.68459,2.36968 -3.26409,4.8108 -4.89658,7.21605 -2.01559,3.01531 -3.99353,6.05524 -5.95472,9.10613 -2.25228,3.58184 -4.64625,7.06939 -7.0341,10.56114 -2.85347,4.15091 -5.73468,8.28262 -8.59219,12.4308 -2.97511,4.30805 -5.97726,8.59748 -8.99297,12.87719 -3.38313,4.8251 -6.94633,9.51759 -10.58723,14.14984 -4.0995,5.12815 -8.37651,10.11107 -12.69988,15.05079 -4.38915,5.04738 -9.07484,9.82268 -13.75812,14.5943 -4.87142,4.98447 -10.10734,9.58656 -15.46798,14.03292 -5.88785,4.79681 -12.02102,9.27945 -18.15006,13.75996 -5.47622,3.9687 -10.9671,7.91716 -16.46716,11.85274 -4.8786,3.45761 -9.75459,6.91914 -14.65316,10.34846 -4.56722,3.18421 -9.17611,6.30792 -13.79265,9.42002 -4.21796,2.81507 -8.43129,5.63748 -12.67595,8.41221 -2.54714,1.67085 -5.09958,3.33361 -7.64992,4.99957 0,0 -51.08319,19.93524 -51.08319,19.93524 l 0,0 c 2.58411,-1.69167 5.16907,-3.38228 7.76855,-5.05024 4.2938,-2.79988 8.60491,-5.57316 12.86458,-8.42536 4.68023,-3.09551 9.34389,-6.21712 13.97188,-9.39014 4.9878,-3.41933 9.91942,-6.91871 14.88363,-10.37199 5.6192,-3.95881 11.21421,-7.95172 16.81054,-11.94276 6.14973,-4.38415 12.27326,-8.81227 18.23001,-13.45654 5.3298,-4.25331 10.54775,-8.65235 15.43496,-13.41388 4.72419,-4.66688 9.42045,-9.36985 13.88601,-14.28663 4.30258,-4.85224 8.58957,-9.72026 12.69433,-14.74237 3.59604,-4.49897 7.11132,-9.06509 10.4412,-13.76562 3.01212,-4.23704 5.9344,-8.53681 8.92989,-12.78566 2.82553,-4.06827 5.62567,-8.15359 8.38976,-12.26384 2.28407,-3.45589 4.67187,-6.84091 6.88464,-10.34306 1.90102,-3.02042 3.80758,-6.03704 5.71621,-9.05265 1.49733,-2.42161 3.11052,-4.76907 4.60831,-7.19085 0.98709,-1.49784 1.99547,-2.97848 2.92968,-4.50892 0.44048,-0.77581 0.85588,-1.56421 1.34807,-2.30362 0,0 51.36031,-22.85972 51.36031,-22.85972 z"
       inkscape:connector-curvature="0" />
    <path
       style="fill:#000000;fill-opacity:1;fill-rule:nonzero;stroke:none"
       id="path3017"
       d="m 191.35115,843.27742 c 1.17949,0.12062 2.34444,0.0378 3.52096,-0.0539 1.91624,-0.0536 3.81117,0.25877 5.70683,0.48069 2.19122,0.31269 4.34497,0.80796 6.50475,1.28214 2.22742,0.51042 4.41366,1.17832 6.61748,1.77808 2.42954,0.72193 4.82619,1.54554 7.22594,2.35931 2.44462,0.82769 4.86608,1.70688 7.23642,2.72908 2.43968,1.05096 4.86925,2.127 7.25734,3.29085 2.48033,1.24106 4.91744,2.56463 7.34911,3.89768 2.37795,1.30795 4.70957,2.69325 7.02784,4.10314 2.32328,1.47963 4.64307,2.96503 6.95767,4.45818 2.26774,1.54166 4.55288,3.05636 6.84137,4.56694 2.39453,1.60741 4.76446,3.25101 7.12631,4.90592 2.43976,1.67871 4.79932,3.46907 7.1995,5.20303 2.43858,1.76571 4.81913,3.609 7.17678,5.48079 2.47804,1.97508 4.91006,4.00672 7.32994,6.05232 2.54681,2.11215 5.01879,4.31101 7.49042,6.50982 2.51045,2.2441 4.93372,4.58201 7.32613,6.95069 2.35348,2.32228 4.65876,4.69281 6.94655,7.07963 2.37999,2.47132 4.6197,5.07184 6.87439,7.65652 2.31499,2.66183 4.56287,5.3803 6.77218,8.13011 2.19819,2.76196 4.3376,5.57028 6.41002,8.42769 2.18734,2.9902 4.20688,6.09623 6.2171,9.20656 1.96853,3.04414 3.87514,6.12781 5.76091,9.22371 1.7226,2.88072 3.42816,5.77196 5.09049,8.68792 1.60027,2.81119 3.07554,5.68941 4.50953,8.58803 1.43715,2.83269 2.77072,5.71484 4.0955,8.60112 1.29139,2.79307 2.54749,5.60274 3.78641,8.41947 1.15253,2.70135 2.31042,5.40042 3.39934,8.12816 1.04037,2.5773 2.01769,5.1792 3.00186,7.7783 0.93866,2.4664 1.8561,4.9404 2.73329,7.4294 0.80073,2.363 1.56413,4.7389 2.3126,7.119 0.48797,1.5674 0.24593,0.7899 0.72612,2.3327 0,0 -48.72874,26.7048 -48.72874,26.7048 l 0,0 c -0.48052,-1.5528 -0.24437,-0.7787 -0.70863,-2.322 -0.73184,-2.3367 -1.47312,-4.6705 -2.21824,-7.0029 -0.82019,-2.4576 -1.69621,-4.8948 -2.59514,-7.3246 -0.96015,-2.5793 -1.92485,-5.1573 -2.92064,-7.723 -1.03983,-2.6808 -2.15608,-5.33 -3.26357,-7.9834 -1.19752,-2.7924 -2.42415,-5.5728 -3.67203,-8.343 -1.31425,-2.8381 -2.61514,-5.6825 -4.0161,-8.4795 -1.38091,-2.8085 -2.82519,-5.58558 -4.33718,-8.32593 -1.62008,-2.88647 -3.27031,-5.75627 -4.94979,-8.60858 -1.80909,-3.068 -3.67858,-6.09948 -5.58803,-9.10607 -1.95881,-3.02473 -3.97061,-6.01411 -6.13514,-8.89691 -2.03727,-2.77725 -4.11266,-5.5248 -6.28136,-8.20152 -2.16363,-2.68784 -4.36178,-5.34856 -6.65776,-7.92507 -2.21145,-2.50964 -4.43658,-5.00829 -6.77304,-7.40327 -2.27661,-2.33411 -4.5617,-4.66048 -6.87274,-6.96051 -2.34414,-2.288 -4.72073,-4.54274 -7.17605,-6.7118 -2.44053,-2.16043 -4.93375,-4.25936 -7.43369,-6.35059 -2.40615,-1.9861 -4.82647,-3.95548 -7.2968,-5.8616 -2.33508,-1.79718 -4.68648,-3.57327 -7.07243,-5.30258 -2.37714,-1.72206 -4.75951,-3.43657 -7.17832,-5.09995 -2.33957,-1.62051 -4.7042,-3.20447 -7.08554,-4.76293 -2.28119,-1.50182 -4.54724,-3.02646 -6.84311,-4.50588 -2.26628,-1.46719 -4.5272,-2.94444 -6.86119,-4.30316 -2.26835,-1.34479 -4.56107,-2.64823 -6.87607,-3.91113 -2.36344,-1.26735 -4.74606,-2.50155 -7.19353,-3.60039 -2.34991,-1.04707 -4.70066,-2.09614 -7.10464,-3.01485 -2.33238,-0.85463 -4.68093,-1.66607 -7.03981,-2.44441 -2.35664,-0.7507 -4.72317,-1.47246 -7.12904,-2.05158 -2.13249,-0.56407 -4.28127,-1.06852 -6.45338,-1.45686 -2.0333,-0.36783 -4.09061,-0.63942 -6.15794,-0.69731 -1.78383,-0.0604 -3.56172,0.0709 -5.32494,0.35175 -1.18206,0.10835 -2.38228,0.14124 -3.49755,0.59859 0,0 44.91108,-33.7769 44.91108,-33.7769 z"
       inkscape:connector-curvature="0" />
  </g>
</svg>
